<svg xmlns="http://www.w3.org/2000/svg" viewBox="28 188 544 184" fill="none" aria-label="Lotten Furniture">
  <g transform="translate(0, 600) scale(0.1, -0.1)" fill="currentColor" fill-rule="evenodd">
    <path d="M2348 3998 c-88 -33 -82 -22 -83 -163 l0 -70 -62 -3 -63 -3 0 -34 0
-35 60 0 60 0 0 -282 c0 -438 5 -488 52 -558 49 -72 170 -99 294 -65 56 15 64
20 64 42 0 23 -1 24 -58 17 -79 -9 -123 11 -154 68 -23 42 -23 49 -26 411 l-3
367 106 0 105 0 0 35 0 35 -105 0 -104 0 -3 134 -3 133 -77 -29z M3398 3997
l-78 -32 0 -102 0 -103 -60 0 -60 0 0 -35 0 -35 59 0 59 0 4 -372 c4 -323 7
-379 22 -419 42 -113 158 -154 321 -113 56 14 65 20 65 39 0 21 -4 22 -74 21
-92 -1 -123 17 -148 90 -15 42 -17 96 -18 402 l0 352 105 0 105 0 0 35 0 35
-105 0 -105 0 0 135 c0 74 -3 135 -7 134 -5 -1 -43 -15 -85 -32z M320 3365 l0
-575 370 0 370 0 0 61 0 62 -47 -7 c-27 -3 -153 -9 -280 -13 l-233 -6 0 527 0
526 -90 0 -90 0 0 -575z M1520 3770 c-188 -29 -337 -147 -400 -315 -28 -75
-38 -219 -21 -307 43 -221 239 -378 471 -378 92 0 190 23 263 62 324 171 339
699 26 881 -86 50 -230 74 -339 57z m195 -79 c172 -80 242 -388 145 -638 -68
-175 -200 -254 -353 -209 -159 46 -247 215 -233 451 11 207 85 345 212 395 66
26 175 26 229 1z M4156 3769 c-176 -26 -315 -156 -362 -340 -22 -84 -22 -235
0 -319 43 -167 180 -294 353 -331 121 -25 291 6 403 73 55 33 55 33 58 87 l3
53 -44 -36 c-24 -20 -75 -50 -113 -67 -60 -27 -80 -32 -149 -31 -205 1 -333
128 -352 348 l-6 74 354 0 354 -1 3 42 c5 63 -16 165 -46 228 -33 71 -117 155
-184 186 -29 13 -82 29 -118 34 -72 12 -71 12 -154 0z m200 -84 c78 -39 126
-130 141 -267 l6 -58 -272 0 -271 0 0 34 c0 85 60 211 125 263 74 59 185 71
271 28z M5279 3770 c-99 -17 -178 -66 -236 -148 l-33 -46 0 92 0 92 -80 0 -80
0 0 -485 0 -485 80 0 80 0 0 283 c0 369 15 454 93 535 73 75 237 83 318 14 73
-61 89 -158 89 -548 l0 -284 81 0 81 0 -5 368 c-4 397 -7 421 -62 504 -56 84
-194 130 -326 108z M3400 2455 c0 -114 2 -125 18 -125 15 0 18 9 18 58 l-1 57
43 3 c23 2 42 7 42 12 0 5 -19 10 -42 12 -43 3 -43 3 -46 46 l-3 42 50 0 c28
0 51 5 51 10 0 6 -28 10 -65 10 l-65 0 0 -125z M3630 2479 c0 -98 1 -101 29
-130 22 -21 39 -29 66 -29 47 0 93 25 105 56 13 34 13 204 0 204 -6 0 -10 -38
-10 -94 0 -79 -3 -97 -21 -120 -16 -20 -29 -26 -58 -26 -67 0 -76 14 -79 134
-3 83 -7 106 -18 106 -11 0 -14 -21 -14 -101z M3950 2452 c0 -108 2 -129 15
-129 12 0 15 14 15 64 0 35 4 63 8 63 5 0 32 -29 60 -65 35 -43 57 -62 67 -59
11 5 7 16 -22 53 -21 25 -41 51 -45 57 -6 8 4 19 27 33 31 18 36 25 33 53 -4
41 -34 58 -105 58 l-53 0 0 -128z m121 92 c28 -34 -15 -84 -72 -84 -16 0 -19
7 -19 49 0 29 5 51 12 53 20 7 67 -4 79 -18z M4220 2450 c0 -154 17 -171 22
-21 l3 93 85 -95 c47 -53 88 -96 93 -96 4 -1 7 55 7 124 0 77 -4 125 -10 125
-6 0 -10 -39 -10 -97 l0 -98 -95 100 -94 100 -1 -135z M4540 2452 c0 -108 2
-129 15 -129 13 0 15 21 15 129 0 107 -2 128 -15 128 -13 0 -15 -21 -15 -128z
M4655 2571 c-3 -6 14 -11 37 -13 l43 -3 1 -113 c1 -62 4 -115 7 -118 19 -19
27 17 27 122 l0 114 35 0 c19 0 35 5 35 10 0 13 -177 13 -185 1z M4924 2565
c-8 -19 1 -171 12 -198 3 -10 19 -24 35 -32 61 -32 139 -9 158 46 13 38 15
199 2 199 -5 0 -11 -45 -13 -99 -4 -119 -17 -141 -83 -141 -61 0 -69 15 -75
133 -3 68 -9 102 -17 105 -7 2 -16 -4 -19 -13z M5250 2456 c0 -105 2 -126 15
-126 12 0 15 13 15 60 0 33 3 60 8 60 6 0 54 -56 94 -112 9 -12 18 -15 27 -9
11 7 5 20 -30 62 -41 49 -42 53 -25 63 54 31 68 65 42 101 -10 14 -30 20 -80
23 l-66 4 0 -126z m118 86 c6 -9 12 -20 12 -24 0 -19 -51 -58 -75 -58 -23 0
-25 3 -25 49 0 30 5 51 13 54 19 8 61 -4 75 -21z M5510 2453 l0 -128 65 3 c36
2 65 7 65 11 0 5 -22 6 -50 3 l-50 -5 0 57 0 56 45 0 c25 0 45 5 45 10 0 6
-20 10 -45 10 l-45 0 0 45 0 45 50 0 c28 0 50 5 50 10 0 6 -28 10 -65 10 l-65
0 0 -127z" />
  </g>
  <circle cx="289.5" cy="271" r="14" fill="#F8A940" />
</svg>